<svg xmlns="http://www.w3.org/2000/svg" width="1080" height="1920" viewBox="0 0 1080 1920">
  <defs>
    <linearGradient id="sky" x1="0" y1="0" x2="0" y2="1">
      <stop offset="0%" stop-color="#2f7dff"/>
      <stop offset="35%" stop-color="#6fd5ff"/>
      <stop offset="70%" stop-color="#7cf2b0"/>
      <stop offset="100%" stop-color="#3fcf7a"/>
    </linearGradient>
    <linearGradient id="hill1" x1="0" y1="0" x2="0" y2="1">
      <stop offset="0%" stop-color="#7CFF8E"/>
      <stop offset="100%" stop-color="#118A39"/>
    </linearGradient>
    <linearGradient id="hill2" x1="0" y1="0" x2="0" y2="1">
      <stop offset="0%" stop-color="#66F58B"/>
      <stop offset="100%" stop-color="#0B6F2B"/>
    </linearGradient>
    <filter id="softShadow" x="-20%" y="-20%" width="140%" height="140%">
      <feGaussianBlur stdDeviation="12" result="blur"/>
      <feColorMatrix in="blur" type="matrix" values="0 0 0 0 0  0 0 0 0 0  0 0 0 0 0  0 0 0 .35 0" result="shadow"/>
      <feMerge>
        <feMergeNode in="shadow"/>
        <feMergeNode in="SourceGraphic"/>
      </feMerge>
    </filter>
  </defs>

  <!-- Sky -->
  <rect width="1080" height="1920" fill="url(#sky)"/>

  <!-- Clouds (blocky roblox-ish) -->
  <g opacity="0.95">
    <g transform="translate(120 180)">
      <rect x="0" y="30" width="220" height="80" rx="18" fill="#FFFFFF" opacity="0.9"/>
      <rect x="60" y="0" width="220" height="90" rx="18" fill="#FFFFFF"/>
      <rect x="230" y="35" width="140" height="65" rx="16" fill="#FFFFFF" opacity="0.92"/>
    </g>
    <g transform="translate(620 260) scale(0.9)">
      <rect x="0" y="30" width="240" height="80" rx="18" fill="#FFFFFF" opacity="0.9"/>
      <rect x="80" y="0" width="240" height="90" rx="18" fill="#FFFFFF"/>
      <rect x="270" y="35" width="150" height="65" rx="16" fill="#FFFFFF" opacity="0.92"/>
    </g>
  </g>

  <!-- Distant city blocks -->
  <g opacity="0.28" transform="translate(740 420)">
    <rect x="0" y="120" width="70" height="240" rx="14" fill="#FFFFFF"/>
    <rect x="86" y="70" width="90" height="290" rx="14" fill="#FFFFFF"/>
    <rect x="190" y="40" width="70" height="320" rx="14" fill="#FFFFFF"/>
    <rect x="270" y="100" width="90" height="260" rx="14" fill="#FFFFFF"/>
  </g>

  <!-- Hills -->
  <path d="M0 860 C180 720 360 720 540 850 C720 980 900 980 1080 840 L1080 1920 L0 1920 Z" fill="url(#hill1)" opacity="0.95"/>
  <path d="M0 980 C220 860 420 860 560 970 C720 1095 890 1095 1080 960 L1080 1920 L0 1920 Z" fill="url(#hill2)" opacity="0.9"/>

  <!-- Foreground blocks (roblox terrain) -->
  <g filter="url(#softShadow)">
    <g transform="translate(0 1320)">
      <rect x="0" y="320" width="1080" height="280" fill="#2DAE5C"/>
      <rect x="0" y="260" width="1080" height="80" fill="#35C96B"/>
      <rect x="0" y="240" width="1080" height="30" fill="#56E285" opacity="0.9"/>

      <g opacity="0.95">
        <rect x="70" y="340" width="170" height="90" rx="14" fill="#C9924B"/>
        <rect x="90" y="316" width="150" height="40" rx="12" fill="#E7B26A"/>

        <rect x="860" y="350" width="150" height="85" rx="14" fill="#C9924B"/>
        <rect x="875" y="328" width="135" height="38" rx="12" fill="#E7B26A"/>

        <rect x="450" y="380" width="180" height="95" rx="14" fill="#C9924B"/>
        <rect x="470" y="356" width="160" height="42" rx="12" fill="#E7B26A"/>
      </g>
    </g>
  </g>

  <!-- Palm-ish leaves -->
  <g opacity="0.9" transform="translate(70 1220)">
    <path d="M120 460 C60 380 40 320 60 260 C90 170 170 110 260 90 C210 160 190 220 200 290 C210 360 220 410 240 470 Z" fill="#1B8D3C"/>
    <path d="M190 490 C220 410 270 350 340 320 C420 285 500 295 560 330 C480 350 430 390 390 450 C350 510 320 550 300 590 Z" fill="#1A7F36"/>
  </g>
  <g opacity="0.9" transform="translate(760 1240) scale(0.9)">
    <path d="M120 460 C60 380 40 320 60 260 C90 170 170 110 260 90 C210 160 190 220 200 290 C210 360 220 410 240 470 Z" fill="#1B8D3C"/>
    <path d="M190 490 C220 410 270 350 340 320 C420 285 500 295 560 330 C480 350 430 390 390 450 C350 510 320 550 300 590 Z" fill="#1A7F36"/>
  </g>
</svg>
